<?xml version="1.0" encoding="utf-8"?>
<!-- Generator: Adobe Illustrator 23.0.4, SVG Export Plug-In . SVG Version: 6.00 Build 0)  -->
<svg version="1.1" id="Layer_1" xmlns="http://www.w3.org/2000/svg" xmlns:xlink="http://www.w3.org/1999/xlink" x="0px" y="0px"
	 viewBox="0 0 419.1 403.6" style="enable-background:new 0 0 419.1 403.6;" xml:space="preserve">
<style type="text/css">
	.st0{fill:#FF7D43;stroke:#000000;stroke-miterlimit:10;}
</style>
<path class="st0" d="M281.8,0c-0.9,0-1.8,0.1-2.7,0.1c-35.8,6.2-55.5,44.1-58.4,77.5c-4.2,30.3,9.2,69.3,42.5,76.1
	c4.8,0.9,9.8,0.5,14.6-0.8c40.1-13.4,58-60.9,52.2-100.2C328.3,27.3,309.1-0.4,281.8,0L281.8,0z M129.9,1.6
	C107.6,2.2,90.3,24.8,86.7,46c-7.4,42.1,11.7,94.4,55.5,107.7c4.1,0.9,8.4,1,12.5,0.3c29.6-4.9,42.2-38.2,40.9-65
	c-0.9-35.4-19.3-76.3-56-86.2C136.4,1.9,133.1,1.6,129.9,1.6L129.9,1.6z M378.8,121.1c-38.5,2.3-65,40.8-68.7,76.7
	c-5.1,25.9,8.7,60.5,38.2,62.6c41.2-0.5,69.3-44.5,70.5-82.4C421.4,152.9,406.7,122.5,378.8,121.1z M41.6,129.7
	C25.2,129.5,9,139.3,3.7,156c-14.3,44.6,14.4,101,61.6,110.4c19.7,3.4,37-11.8,41.9-30c10.4-38.9-10.9-84.2-46.9-101.8
	C54.4,131.3,48,129.7,41.6,129.7L41.6,129.7z M214.3,209.6c-32.1,0.1-64.8,16.4-85.6,40.7c-22.5,28.3-40.9,61.2-48.1,96.9
	c-8.8,25.7,11.1,55.3,38.6,55.5c33.1,0.9,61.5-21.8,94.3-23.5c27.9-4.3,52.9,10.3,77.9,19.8c21.3,9.1,50.9,5.6,61.8-17.3
	c8.6-23.4-4-48.4-14.5-69.2c-21.3-33.8-44.2-69.2-79.1-90.3C245.6,213.4,230,209.6,214.3,209.6L214.3,209.6z"/>
</svg>
